ply
format ascii 1.0
comment Created by Blender 2.79 (sub 0) - www.blender.org, source file: ''
element vertex 70
property float x
property float y
property float z
property float nx
property float ny
property float nz
property float s
property float t
property uchar red
property uchar green
property uchar blue
element face 34
property list uchar uint vertex_indices
end_header
-1.000000 2.000000 1.000000 0.000000 0.000000 -1.000000 0.003906 0.003906 255 255 255
1.000000 0.000000 1.000000 0.000000 0.000000 -1.000000 0.398438 0.332031 255 255 255
-1.000000 0.000000 1.000000 0.000000 0.000000 -1.000000 0.398438 0.003906 255 255 255
0.091734 0.800000 0.027692 -0.292540 0.000000 -0.956253 0.898438 0.585938 255 255 255
0.569860 0.000000 -0.118578 -0.292540 0.000000 -0.956253 0.800781 0.746094 255 255 255
0.091734 0.000000 0.027692 -0.292540 0.000000 -0.956253 0.898438 0.746094 255 255 255
0.569860 0.800000 -0.118578 0.956253 0.000000 -0.292542 0.796875 0.746094 255 255 255
0.716131 0.000000 0.359549 0.956253 0.000000 -0.292542 0.601562 0.667969 255 255 255
0.569860 0.000000 -0.118578 0.956253 0.000000 -0.292542 0.601562 0.746094 255 255 255
0.716131 0.800000 0.359549 0.292540 0.000000 0.956253 0.898438 0.417969 255 255 255
0.238004 0.000000 0.505819 0.292540 0.000000 0.956253 0.800781 0.582031 255 255 255
0.716131 0.000000 0.359549 0.292540 0.000000 0.956253 0.898438 0.582031 255 255 255
0.238004 0.000000 0.505819 -0.956253 0.000000 0.292540 0.800781 0.246094 255 255 255
0.091734 0.800000 0.027692 -0.956253 0.000000 0.292540 0.996094 0.167969 255 255 255
0.091734 0.000000 0.027692 -0.956253 0.000000 0.292540 0.800781 0.167969 255 255 255
0.716131 0.000000 0.359549 0.000000 -1.000000 0.000000 0.902344 0.335938 255 255 255
0.091734 0.000000 0.027692 0.000000 -1.000000 0.000000 0.996094 0.414062 255 255 255
0.569860 0.000000 -0.118578 0.000000 -1.000000 0.000000 0.996094 0.335938 255 255 255
0.716131 0.800000 0.359549 -0.000000 1.000000 0.000000 0.996094 0.003906 255 255 255
0.091734 0.800000 0.027692 -0.000000 1.000000 0.000000 0.902344 0.082031 255 255 255
0.238004 0.800000 0.505819 -0.000000 1.000000 0.000000 0.996094 0.082031 255 255 255
-0.609887 1.100000 -0.379821 0.410297 0.000000 -0.911952 0.898438 0.003906 255 255 255
-0.245106 0.000000 -0.215702 0.410297 0.000000 -0.911952 0.800781 0.164062 255 255 255
-0.609887 0.000000 -0.379821 0.410297 0.000000 -0.911952 0.898438 0.164062 255 255 255
-0.245106 1.100000 -0.215702 0.911953 0.000000 0.410295 0.597656 0.746094 255 255 255
-0.409224 0.000000 0.149079 0.911953 0.000000 0.410295 0.402344 0.667969 255 255 255
-0.245106 0.000000 -0.215702 0.911953 0.000000 0.410295 0.402344 0.746094 255 255 255
-0.409224 1.100000 0.149079 -0.410297 0.000000 0.911952 0.898438 0.253906 255 255 255
-0.774005 0.000000 -0.015040 -0.410297 0.000000 0.911952 0.800781 0.414062 255 255 255
-0.409224 0.000000 0.149079 -0.410297 0.000000 0.911952 0.898438 0.414062 255 255 255
-0.774005 1.100000 -0.015040 -0.911953 0.000000 -0.410295 0.597656 0.832031 255 255 255
-0.609887 0.000000 -0.379821 -0.911953 0.000000 -0.410295 0.402344 0.753906 255 255 255
-0.774005 0.000000 -0.015040 -0.911953 0.000000 -0.410295 0.402344 0.832031 255 255 255
-0.245106 0.000000 -0.215702 0.000000 -1.000000 0.000000 0.996094 0.085938 255 255 255
-0.774005 0.000000 -0.015040 0.000000 -1.000000 0.000000 0.902344 0.164062 255 255 255
-0.609887 0.000000 -0.379821 0.000000 -1.000000 0.000000 0.996094 0.164062 255 255 255
-0.409224 1.100000 0.149079 -0.000000 1.000000 0.000000 0.996094 0.253906 255 255 255
-0.609887 1.100000 -0.379821 -0.000000 1.000000 0.000000 0.902344 0.332031 255 255 255
-0.774005 1.100000 -0.015040 -0.000000 1.000000 0.000000 0.996094 0.332031 255 255 255
-1.000000 0.000000 1.000000 0.000000 1.000000 -0.000000 0.402344 0.335938 255 255 255
1.000000 0.000000 -1.000000 0.000000 1.000000 -0.000000 0.796875 0.664062 255 255 255
-1.000000 0.000000 -1.000000 0.000000 1.000000 -0.000000 0.796875 0.335938 255 255 255
1.000000 0.000000 1.000000 -1.000000 0.000000 0.000000 0.402344 0.003906 255 0 0
1.000000 2.000000 -1.000000 -1.000000 0.000000 0.000000 0.796875 0.332031 255 0 0
1.000000 0.000000 -1.000000 -1.000000 0.000000 0.000000 0.796875 0.003906 255 0 0
1.000000 2.000000 1.000000 0.000000 -1.000000 0.000000 0.003906 0.335938 255 255 255
-1.000000 2.000000 -1.000000 0.000000 -1.000000 0.000000 0.398438 0.664062 255 255 255
1.000000 2.000000 -1.000000 0.000000 -1.000000 0.000000 0.398438 0.335938 255 255 255
-1.000000 2.000000 -1.000000 1.000000 -0.000000 0.000000 0.398438 0.667969 0 255 0
-1.000000 0.000000 1.000000 1.000000 -0.000000 0.000000 0.003906 0.996094 0 255 0
-1.000000 0.000000 -1.000000 1.000000 -0.000000 0.000000 0.398438 0.996094 3 255 3
1.000000 2.000000 1.000000 0.000000 0.000000 -1.000000 0.003906 0.332031 255 255 255
0.569860 0.800000 -0.118578 -0.292540 0.000000 -0.956253 0.800781 0.585938 255 255 255
0.716131 0.800000 0.359549 0.956253 0.000000 -0.292542 0.796875 0.667969 255 255 255
0.238004 0.800000 0.505819 0.292540 -0.000000 0.956253 0.800781 0.417969 255 255 255
0.238004 0.800000 0.505819 -0.956253 0.000000 0.292540 0.996094 0.246094 255 255 255
0.238004 0.000000 0.505819 0.000000 -1.000000 0.000000 0.902344 0.414062 255 255 255
0.569860 0.800000 -0.118578 -0.000000 1.000000 0.000000 0.902344 0.003906 255 255 255
-0.245106 1.100000 -0.215702 0.410297 0.000000 -0.911952 0.800781 0.003906 255 255 255
-0.409224 1.100000 0.149079 0.911953 -0.000000 0.410295 0.597656 0.667969 255 255 255
-0.409224 1.100000 0.149079 -0.410297 0.000000 0.911952 0.898438 0.253906 255 255 255
-0.774005 1.100000 -0.015040 -0.410297 0.000000 0.911952 0.800781 0.253906 255 255 255
-0.774005 0.000000 -0.015040 -0.410297 0.000000 0.911952 0.800781 0.414062 255 255 255
-0.609887 1.100000 -0.379821 -0.911953 0.000000 -0.410295 0.597656 0.753906 255 255 255
-0.409224 0.000000 0.149079 0.000000 -1.000000 0.000000 0.902344 0.085938 255 255 255
-0.245106 1.100000 -0.215702 0.000000 1.000000 -0.000000 0.902344 0.253906 255 255 255
1.000000 0.000000 1.000000 0.000000 1.000000 -0.000000 0.402344 0.664062 255 255 255
1.000000 2.000000 1.000000 -1.000000 0.000000 0.000000 0.402344 0.332031 255 0 0
-1.000000 2.000000 1.000000 0.000000 -1.000000 0.000000 0.003906 0.664062 255 255 255
-1.000000 2.000000 1.000000 1.000000 -0.000000 0.000000 0.003906 0.667969 0 255 0
3 0 1 2
3 3 4 5
3 6 7 8
3 9 10 11
3 12 13 14
3 15 16 17
3 18 19 20
3 21 22 23
3 24 25 26
3 27 28 29
3 30 31 32
3 33 34 35
3 36 37 38
3 39 40 41
3 42 43 44
3 45 46 47
3 48 49 50
3 0 51 1
3 3 52 4
3 6 53 7
3 9 54 10
3 12 55 13
3 15 56 16
3 18 57 19
3 21 58 22
3 24 59 25
3 60 61 62
3 30 63 31
3 33 64 34
3 36 65 37
3 39 66 40
3 42 67 43
3 45 68 46
3 48 69 49
